<svg width="35" height="35" viewBox="0 0 35 35" fill="none" xmlns="http://www.w3.org/2000/svg">
<path d="M13.125 8.75001H30.625M13.125 17.5H30.625M13.125 26.25H24.7917M5.83333 10.2083C6.22011 10.2083 6.59104 10.0547 6.86453 9.7812C7.13802 9.50771 7.29167 9.13678 7.29167 8.75001C7.29167 8.36323 7.13802 7.9923 6.86453 7.71881C6.59104 7.44532 6.22011 7.29167 5.83333 7.29167C5.44656 7.29167 5.07563 7.44532 4.80214 7.71881C4.52865 7.9923 4.375 8.36323 4.375 8.75001C4.375 9.13678 4.52865 9.50771 4.80214 9.7812C5.07563 10.0547 5.44656 10.2083 5.83333 10.2083ZM5.83333 18.9583C6.22011 18.9583 6.59104 18.8047 6.86453 18.5312C7.13802 18.2577 7.29167 17.8868 7.29167 17.5C7.29167 17.1132 7.13802 16.7423 6.86453 16.4688C6.59104 16.1953 6.22011 16.0417 5.83333 16.0417C5.44656 16.0417 5.07563 16.1953 4.80214 16.4688C4.52865 16.7423 4.375 17.1132 4.375 17.5C4.375 17.8868 4.52865 18.2577 4.80214 18.5312C5.07563 18.8047 5.44656 18.9583 5.83333 18.9583ZM5.83333 27.7083C6.22011 27.7083 6.59104 27.5547 6.86453 27.2812C7.13802 27.0077 7.29167 26.6368 7.29167 26.25C7.29167 25.8632 7.13802 25.4923 6.86453 25.2188C6.59104 24.9453 6.22011 24.7917 5.83333 24.7917C5.44656 24.7917 5.07563 24.9453 4.80214 25.2188C4.52865 25.4923 4.375 25.8632 4.375 26.25C4.375 26.6368 4.52865 27.0077 4.80214 27.2812C5.07563 27.5547 5.44656 27.7083 5.83333 27.7083Z" stroke="#C0C0C0" stroke-width="2" stroke-linecap="round"/>
</svg>
