<svg width="35" height="35" viewBox="0 0 35 35" fill="none" xmlns="http://www.w3.org/2000/svg">
<path d="M17.5 2.91669C9.43542 2.91669 2.91667 9.43544 2.91667 17.5C2.91667 25.5646 9.43542 32.0834 17.5 32.0834C25.5646 32.0834 32.0833 25.5646 32.0833 17.5C32.0833 9.43544 25.5646 2.91669 17.5 2.91669ZM23.7708 23.7709C23.6359 23.906 23.4757 24.0133 23.2992 24.0865C23.1228 24.1597 22.9337 24.1973 22.7427 24.1973C22.5517 24.1973 22.3626 24.1597 22.1862 24.0865C22.0098 24.0133 21.8495 23.906 21.7146 23.7709L17.5 19.5563L13.2854 23.7709C13.0127 24.0435 12.6429 24.1967 12.2573 24.1967C11.8717 24.1967 11.5018 24.0435 11.2292 23.7709C10.9565 23.4982 10.8033 23.1283 10.8033 22.7427C10.8033 22.5518 10.8409 22.3627 10.914 22.1863C10.9871 22.0099 11.0942 21.8496 11.2292 21.7146L15.4438 17.5L11.2292 13.2854C10.9565 13.0128 10.8033 12.6429 10.8033 12.2573C10.8033 11.8717 10.9565 11.5019 11.2292 11.2292C11.5018 10.9565 11.8717 10.8033 12.2573 10.8033C12.6429 10.8033 13.0127 10.9565 13.2854 11.2292L17.5 15.4438L21.7146 11.2292C21.8496 11.0942 22.0099 10.9871 22.1863 10.914C22.3627 10.8409 22.5518 10.8033 22.7427 10.8033C22.9337 10.8033 23.1227 10.8409 23.2991 10.914C23.4755 10.9871 23.6358 11.0942 23.7708 11.2292C23.9059 11.3642 24.013 11.5245 24.086 11.7009C24.1591 11.8773 24.1967 12.0664 24.1967 12.2573C24.1967 12.4483 24.1591 12.6373 24.086 12.8137C24.013 12.9901 23.9059 13.1504 23.7708 13.2854L19.5563 17.5L23.7708 21.7146C24.325 22.2688 24.325 23.2021 23.7708 23.7709Z" fill="#ED3636"/>
</svg>
