<svg width="70" height="70" viewBox="0 0 70 70" fill="none" xmlns="http://www.w3.org/2000/svg">
<path d="M32.1708 7.55417C32.9615 6.88464 33.964 6.51721 35 6.51721C36.036 6.51721 37.0385 6.88464 37.8292 7.55417L59.7042 26.1129C60.1886 26.5236 60.5777 27.0348 60.8447 27.611C61.1116 28.1872 61.2499 28.8146 61.25 29.4496V56.875C61.25 58.0353 60.7891 59.1481 59.9686 59.9686C59.1481 60.7891 58.0353 61.25 56.875 61.25H40.1042C39.524 61.25 38.9676 61.0195 38.5574 60.6093C38.1471 60.1991 37.9167 59.6427 37.9167 59.0625V40.8333H32.0833V59.0625C32.0833 59.6427 31.8529 60.1991 31.4426 60.6093C31.0324 61.0195 30.476 61.25 29.8958 61.25H13.125C11.9647 61.25 10.8519 60.7891 10.0314 59.9686C9.21094 59.1481 8.75 58.0353 8.75 56.875V29.4496C8.75 28.1663 9.31583 26.9442 10.2958 26.1129L32.1708 7.55417ZM35 10.8908L13.125 29.4496V56.875H27.7083V38.6458C27.7083 38.0657 27.9388 37.5093 28.349 37.099C28.7593 36.6888 29.3157 36.4583 29.8958 36.4583H40.1042C40.6843 36.4583 41.2407 36.6888 41.651 37.099C42.0612 37.5093 42.2917 38.0657 42.2917 38.6458V56.875H56.875V29.4496L35 10.8908Z" fill="white"/>
</svg>
