<svg width="35" height="35" viewBox="0 0 35 35" fill="none" xmlns="http://www.w3.org/2000/svg">
<path d="M3.75 8.75C3.75 8.41848 3.8817 8.10054 4.11612 7.86612C4.35054 7.6317 4.66848 7.5 5 7.5H27.5C27.8315 7.5 28.1495 7.6317 28.3839 7.86612C28.6183 8.10054 28.75 8.41848 28.75 8.75C28.75 9.08152 28.6183 9.39946 28.3839 9.63388C28.1495 9.8683 27.8315 10 27.5 10H5C4.66848 10 4.35054 9.8683 4.11612 9.63388C3.8817 9.39946 3.75 9.08152 3.75 8.75ZM3.75 26.25C3.75 25.9185 3.8817 25.6005 4.11612 25.3661C4.35054 25.1317 4.66848 25 5 25H25C25.3315 25 25.6495 25.1317 25.8839 25.3661C26.1183 25.6005 26.25 25.9185 26.25 26.25C26.25 26.5815 26.1183 26.8995 25.8839 27.1339C25.6495 27.3683 25.3315 27.5 25 27.5H5C4.66848 27.5 4.35054 27.3683 4.11612 27.1339C3.8817 26.8995 3.75 26.5815 3.75 26.25ZM5 16.25C4.66848 16.25 4.35054 16.3817 4.11612 16.6161C3.8817 16.8505 3.75 17.1685 3.75 17.5C3.75 17.8315 3.8817 18.1495 4.11612 18.3839C4.35054 18.6183 4.66848 18.75 5 18.75H30C30.3315 18.75 30.6495 18.6183 30.8839 18.3839C31.1183 18.1495 31.25 17.8315 31.25 17.5C31.25 17.1685 31.1183 16.8505 30.8839 16.6161C30.6495 16.3817 30.3315 16.25 30 16.25H5Z" fill="#C0C0C0"/>
</svg>
