<svg width="48" height="48" viewBox="0 0 48 48" fill="none" xmlns="http://www.w3.org/2000/svg">
<path fill-rule="evenodd" clip-rule="evenodd" d="M33 18.535C34.163 18.883 35 19 35 19V16H37C38.3261 16 39.5979 15.4732 40.5355 14.5355C41.4732 13.5979 42 12.3261 42 11C42 9.67392 41.4732 8.40215 40.5355 7.46447C39.5979 6.52678 38.3261 6 37 6H31.236C29.8473 6 28.5155 6.55165 27.5336 7.53359C26.5516 8.51553 26 9.84733 26 11.236C26 15.754 30.348 17.742 33 18.535ZM40 11C40 11.7956 39.6839 12.5587 39.1213 13.1213C38.5587 13.6839 37.7956 14 37 14H33V16.435C32.4514 16.2487 31.9158 16.0259 31.397 15.768C29.414 14.774 28 13.36 28 11.236C28 10.3778 28.3409 9.55467 28.9478 8.9478C29.5547 8.34093 30.3778 8 31.236 8H37C37.7956 8 38.5587 8.31607 39.1213 8.87868C39.6839 9.44129 40 10.2044 40 11ZM14.817 17.993C13.5065 17.9476 12.2664 17.3891 11.3639 16.4377C10.4615 15.4864 9.96903 14.2185 9.99278 12.9075C10.0165 11.5964 10.5546 10.3472 11.4909 9.4292C12.4272 8.51118 13.6867 7.99789 14.998 8H18.167C19.4488 8 20.6781 8.50919 21.5844 9.41555C22.4908 10.3219 23 11.5512 23 12.833C23 16.875 19.37 18.723 17 19.5C15.852 19.876 15 20 15 20V18L14.817 17.993ZM17 16.071L14.89 15.995C14.0971 15.9778 13.3433 15.647 12.7937 15.0753C12.2441 14.5035 11.9435 13.7372 11.9576 12.9442C11.9718 12.1512 12.2996 11.3962 12.8692 10.8444C13.4389 10.2925 14.204 9.98893 14.997 10H18.166C18.5381 9.99987 18.9066 10.073 19.2505 10.2154C19.5943 10.3577 19.9067 10.5663 20.1699 10.8294C20.4331 11.0925 20.6418 11.4048 20.7843 11.7486C20.9267 12.0924 21 12.4609 21 12.833C21 14.748 19.783 16.003 18.076 16.893C17.716 17.081 17.351 17.241 17 17.377V16.071ZM28 24C28 26.21 26.21 28 24 28C21.79 28 20 26.21 20 24C20 21.79 21.79 20 24 20C26.21 20 28 21.79 28 24ZM26 24C26 24.5304 25.7893 25.0391 25.4142 25.4142C25.0391 25.7893 24.5304 26 24 26C23.4696 26 22.9609 25.7893 22.5858 25.4142C22.2107 25.0391 22 24.5304 22 24C22 23.4696 22.2107 22.9609 22.5858 22.5858C22.9609 22.2107 23.4696 22 24 22C24.5304 22 25.0391 22.2107 25.4142 22.5858C25.7893 22.9609 26 23.4696 26 24ZM19 26C19 28.21 17.21 30 15 30C12.79 30 11 28.21 11 26C11 23.79 12.79 22 15 22C17.21 22 19 23.79 19 26ZM17 26C17 26.5304 16.7893 27.0391 16.4142 27.4142C16.0391 27.7893 15.5304 28 15 28C14.4696 28 13.9609 27.7893 13.5858 27.4142C13.2107 27.0391 13 26.5304 13 26C13 25.4696 13.2107 24.9609 13.5858 24.5858C13.9609 24.2107 14.4696 24 15 24C15.5304 24 16.0391 24.2107 16.4142 24.5858C16.7893 24.9609 17 25.4696 17 26ZM6 36.545C6 33.523 11.996 32 15 32C15.585 32 16.284 32.058 17.03 32.173C18.37 31.19 20.827 30 24 30C27.172 30 29.629 31.19 30.971 32.173C31.6421 32.0648 32.3203 32.007 33 32C36.004 32 42 33.523 42 36.545V42H6V36.545ZM21.652 36.023C22 36.347 22 36.516 22 36.545V40H8V36.545C8 36.515 8 36.347 8.348 36.023C8.711 35.684 9.31 35.323 10.124 34.993C11.756 34.333 13.75 34 15 34C16.25 34 18.244 34.333 19.876 34.993C20.69 35.323 21.289 35.684 21.652 36.023ZM28.142 32.856C26.8348 32.2892 25.4248 31.9978 24 32C22.344 32 20.936 32.386 19.859 32.856C22.074 33.6 24 34.832 24 36.546C24 34.832 25.926 33.601 28.142 32.856ZM40 36.546C40 36.516 40 36.347 39.652 36.023C39.289 35.684 38.69 35.323 37.876 34.993C36.244 34.333 34.25 34 33 34C31.75 34 29.756 34.333 28.124 34.993C27.31 35.323 26.711 35.684 26.348 36.023C26 36.347 26 36.516 26 36.545V40H40V36.545V36.546ZM33 30C35.21 30 37 28.21 37 26C37 23.79 35.21 22 33 22C30.79 22 29 23.79 29 26C29 28.21 30.79 30 33 30ZM33 28C33.5304 28 34.0391 27.7893 34.4142 27.4142C34.7893 27.0391 35 26.5304 35 26C35 25.4696 34.7893 24.9609 34.4142 24.5858C34.0391 24.2107 33.5304 24 33 24C32.4696 24 31.9609 24.2107 31.5858 24.5858C31.2107 24.9609 31 25.4696 31 26C31 26.5304 31.2107 27.0391 31.5858 27.4142C31.9609 27.7893 32.4696 28 33 28Z" fill="#C0C0C0"/>
</svg>
